<?xml version="1.0" encoding="utf-8"?>
<!-- Generated by IcoMoon.io -->
<!DOCTYPE svg PUBLIC "-//W3C//DTD SVG 1.1//EN" "http://www.w3.org/Graphics/SVG/1.1/DTD/svg11.dtd">
<svg version="1.1" xmlns="http://www.w3.org/2000/svg" xmlns:xlink="http://www.w3.org/1999/xlink" width="24" height="24" viewBox="0 0 24 24">
<path d="M22.875 0h-9c-0.619 0-1.483 0.358-1.921 0.796l-11.159 11.159c-0.438 0.438-0.438 1.153 0 1.591l9.659 9.659c0.438 0.438 1.153 0.438 1.591 0l11.159-11.159c0.437-0.437 0.795-1.302 0.795-1.92v-9c0-0.619-0.506-1.125-1.125-1.125zM17.25 9c-1.243 0-2.25-1.007-2.25-2.25s1.007-2.25 2.25-2.25 2.25 1.007 2.25 2.25-1.007 2.25-2.25 2.25z"></path>
</svg>
